<svg xmlns="http://www.w3.org/2000/svg" xmlns:xlink="http://www.w3.org/1999/xlink" width="1080" height="1080" viewBox="0 0 1080 1080">
  <defs>
    <linearGradient id="linear-gradient" x1="0.5" x2="0.5" y2="1" gradientUnits="objectBoundingBox">
      <stop offset="0" stop-color="#ffa7e0"/>
      <stop offset="1" stop-color="#fc64c6"/>
    </linearGradient>
    <linearGradient id="linear-gradient-2" x1="0.5" x2="0.5" y2="1" gradientUnits="objectBoundingBox">
      <stop offset="0" stop-color="#fff"/>
      <stop offset="1" stop-color="#fff" stop-opacity="0"/>
    </linearGradient>
    <clipPath id="clip-Logo_Slogan_Verti">
      <rect width="1080" height="1080"/>
    </clipPath>
  </defs>
  <g id="Logo_Slogan_Verti" data-name="Logo Slogan Verti" clip-path="url(#clip-Logo_Slogan_Verti)">
    <g id="Logo_Slogan_Verti-2" data-name="Logo Slogan Verti" transform="translate(83.048 335)">
      <g id="Group_7" data-name="Group 7" transform="translate(282.091 0.086)">
        <path id="Union_2" data-name="Union 2" d="M109.716,157.323a48.793,48.793,0,0,1-34.481-14.178,48.233,48.233,0,0,1-12.749-22.127H42.746a6.052,6.052,0,1,1,0-12.1h24.7a6.119,6.119,0,0,1,6.17,5.832c2.676,17.391,18.15,30.473,36.1,30.473h85.335a36.48,36.48,0,0,0,36.572-36.305V48.407A36.481,36.481,0,0,0,195.051,12.1H6.1A6.051,6.051,0,1,1,6.1,0H195.051A48.788,48.788,0,0,1,229.53,14.179a48.076,48.076,0,0,1,14.283,34.228v60.509a48.076,48.076,0,0,1-14.283,34.229,48.793,48.793,0,0,1-34.479,14.178ZM6.1,121.018a6.051,6.051,0,1,1,0-12.1h12.19a6.051,6.051,0,1,1,0,12.1ZM30.477,84.713a6.051,6.051,0,1,1,0-12.1H73.145a6.051,6.051,0,1,1,0,12.1ZM18.286,48.407a6.051,6.051,0,1,1,0-12.1H79.24a6.051,6.051,0,1,1,0,12.1Z" transform="translate(25.386 28.941)" fill="#fff"/>
        <rect id="Rectangle_48" data-name="Rectangle 48" width="350" height="216" transform="translate(-0.139 -0.086)" fill="none"/>
        <path id="Path_7" data-name="Path 7" d="M33.212,3.369a6.031,6.031,0,0,1,10.824,0L76.6,68.979A6.094,6.094,0,0,1,71.19,77.8H6.059A6.094,6.094,0,0,1,.647,68.979Z" transform="translate(218.999 68.979) rotate(90)" fill="url(#linear-gradient)"/>
        <path id="Path_8" data-name="Path 8" d="M-133.678-49.056V16.076a6.1,6.1,0,0,0,8.821,5.413L-92.488,5.423-130.15-54.546A6.019,6.019,0,0,0-133.678-49.056Z" transform="translate(274.871 124.095)" opacity="0.5" fill="url(#linear-gradient-2)"/>
      </g>
      <path id="Path_34" data-name="Path 34" d="M-433.3-30.24h-19.656C-449.82-14.472-436.968.108-419.256.108c16.74,0,37.476-6.48,37.476-26.568,0-15.336-11.988-24.408-23.328-27.108-8.748-2.16-27.432-3.024-27.432-13.716,0-7.992,10.584-8.64,16.632-8.64,8.316,0,13.392,5.508,15.444,11.232H-380.7c-5.724-22.356-15.552-29.376-38.34-29.376-16.2.216-33.156,10.368-33.156,26.892,0,9.288,5.4,17.712,12.744,22.572,1.08.648,2.052,1.188,3.024,1.728h-.108c7.992,4.212,16.956,4.1,24.516,6.156,5.292,1.4,10.476,4,10.476,9.288,0,8.532-10.044,9.4-16.524,9.4C-426.816-18.036-431.568-24.3-433.3-30.24ZM-341.388.108V-16.956h-7.992a3.61,3.61,0,0,1-3.348-3.78V-50.328h8.532V-67.5h-8.532v-9.288H-371.2v56.052a20.942,20.942,0,0,0,1.728,7.776C-365.8-4.536-358.452.108-349.38.108Zm12.1-.108h18.468V-37.476c0-7.56,5.616-13.5,12.852-13.5h7.992V-68.04h-7.992a27.544,27.544,0,0,0-12.852,2.916v-2.268h-18.468Zm96.336-22.788c-3.78,3.564-8.316,5.724-12.636,5.724-6.8,0-11.016-3.348-13.932-8.316h48.816v-8.532c0-19.44-16.416-33.912-34.884-33.912-18.36,0-34.992,14.58-34.992,33.912,0,19.224,16.632,33.8,34.992,33.8,13.068,0,29.052-8.424,33.8-22.68Zm-26.46-19.764c2.808-4.86,7.128-8.208,13.824-8.208s10.908,3.348,13.824,8.208ZM-149.8-.108h18.576V-67.284H-149.8v3.24a33.757,33.757,0,0,0-16.308-4c-18.468,0-35.1,14.688-35.1,33.912,0,19.332,16.632,33.912,35.1,33.912a35.343,35.343,0,0,0,16.308-4Zm-32.724-34.02A16.575,16.575,0,0,1-166.1-50.976c8.964,0,16.308,7.56,16.308,16.848S-157.248-17.28-166.1-17.28A16.575,16.575,0,0,1-182.52-34.128ZM-115.992,0h18.576V-37.476c0-7.344,5.616-13.5,12.744-13.5a13.19,13.19,0,0,1,12.96,13.5V0h18.576V-37.476c0-7.452,5.724-13.5,12.852-13.5s12.852,6.048,12.852,13.5V0H-8.856V-37.476c0-17.5-14.8-30.564-31.428-30.564-9.72,0-15.768,3.132-22.032,8.964A31.516,31.516,0,0,0-84.672-68.04a30.22,30.22,0,0,0-12.744,2.7v-2.484h-18.576ZM82.728-30.888c-6.048,12.1-18.468,20.3-31.968,20.3-19.332,0-35.64-16.308-35.64-36.288s16.092-36.5,35.64-36.5c13.5,0,25.92,8.316,31.968,20.628H95.8A48.812,48.812,0,0,0,50.76-94.068c-25.488,0-47.844,20.844-47.844,47.2C2.916-20.412,25.38-.108,50.76-.108c19.548,0,38.016-12.2,45.036-30.78Zm25.6,30.78H120.1v-39.2c0-11.556,8.964-21.168,20.412-21.168s20.52,9.5,20.52,21.168v39.2H172.8v-39.2c0-17.712-15.228-31.1-32.292-31.1a30.4,30.4,0,0,0-16.956,4.86L120.1-63.4v-30.78H108.324ZM246.24-.216h11.772V-69.768H246.24v8.424l-3.564-2.7a35.577,35.577,0,0,0-21.06-6.588c-19.224,0-36.5,15.12-36.5,35.208,0,19.98,17.28,35.1,36.5,35.1a35.577,35.577,0,0,0,21.06-6.588L246.24-9.5ZM196.884-35.424A24.987,24.987,0,0,1,221.616-60.7c13.5,0,24.624,11.34,24.624,25.272,0,13.824-11.232,25.164-24.624,25.164A24.893,24.893,0,0,1,196.884-35.424Zm73.008,16.092C271.512-3.24,284.364,1.62,295.7,1.62c14.148,0,26.892-7.56,26.892-20.088,0-10.476-8.856-17.388-18.144-19.548-7.128-1.62-23.112-2.376-23.112-12.42,0-6.588,6.912-9.828,15.228-9.828,5.4,0,13.176,1.4,14.58,10.8l11.88-.216c-1.512-15.552-15.552-20.628-26.784-20.628-13.608,0-26.676,7.344-26.676,19.656,0,10.368,9.288,17.388,17.928,19.548,7.776,1.836,23.436,1.836,23.436,12.2,0,6.8-6.7,10.584-15.336,10.584-5.4,0-12.96-1.512-14.58-11.016ZM344.52-30.24h60.8v-4.968c0-20.2-17.064-35.208-36.4-35.208-19.116,0-36.4,15.12-36.4,35.208,0,19.98,17.28,35.1,36.4,35.1,14.148,0,24.192-7.56,32.076-19.008h-12.42a26.8,26.8,0,0,1-19.656,9.072A24.837,24.837,0,0,1,345.6-27.324Zm0-10.044L345.6-43.2c3.24-10.044,12.96-17.28,23.328-17.28A25.249,25.249,0,0,1,392.472-43.2l.972,2.916ZM417.636,0H429.3V-39.528c0-11.772,8.964-21.168,20.52-21.168h4.32v-9.936h-4.32a30.5,30.5,0,0,0-17.064,4.86l-3.456,2.16v-6.264H417.636Z" transform="translate(452.952 318)" fill="#fff"/>
      <path id="Path_33" data-name="Path 33" d="M-302.712-33.648c-6.1,0-10.416,3.552-10.416,8.64,0,5.136,3.36,7.584,9.792,9.552,5.616,1.728,7.152,3.168,7.152,6.384,0,3.984-3.216,5.9-7.1,5.9a11.754,11.754,0,0,1-8.544-3.456l-2.64,2.928A15.466,15.466,0,0,0-303.24.576c7.44,0,11.808-4.032,11.808-9.792,0-6.336-4.512-8.4-9.792-10.032-5.952-1.824-7.248-3.168-7.248-5.952,0-3.168,2.64-4.7,5.952-4.7a10.634,10.634,0,0,1,7.44,2.976l2.592-2.88A13.946,13.946,0,0,0-302.712-33.648Zm30.528,32.5-1.68-3.024a6.181,6.181,0,0,1-3.36,1.1c-2.208,0-3.024-1.2-3.024-3.744V-21.888h5.52l.48-3.408h-6v-6.24l-4.416.528V-25.3h-4.416v3.408h4.416V-6.624c0,4.7,2.544,7.2,6.816,7.2A9.643,9.643,0,0,0-272.184-1.152Zm13.584-24.72c-7.2,0-11.328,5.424-11.328,13.248,0,8.016,4.08,13.2,11.28,13.2,7.152,0,11.28-5.424,11.28-13.248C-247.368-20.688-251.4-25.872-258.6-25.872Zm0,3.552c4.176,0,6.48,3.072,6.48,9.648,0,6.624-2.3,9.7-6.528,9.7s-6.528-3.072-6.528-9.648C-265.176-19.248-262.824-22.32-258.6-22.32Zm30.144-3.552a9.2,9.2,0,0,0-7.488,3.984l-.336-3.408h-3.792v35.52l4.416-.528v-12a8.163,8.163,0,0,0,6.624,2.88c6.528,0,9.936-5.568,9.936-13.248C-219.1-20.64-221.736-25.872-228.456-25.872Zm-1.632,22.848A6.513,6.513,0,0,1-235.656-6.1V-18.432c1.344-2.016,3.408-3.936,6.1-3.936,3.792,0,5.712,3.12,5.712,9.7C-223.848-6.048-226.056-3.024-230.088-3.024Zm37.248-2.64V-33.216H-199.9V0h19.44l.768-5.664ZM-164.9-26.208c-7.68,0-12.24,5.376-12.24,13.488,0,8.448,4.608,13.488,12.192,13.488,7.632,0,12.192-5.424,12.192-13.488C-152.76-21.168-157.32-26.208-164.9-26.208Zm0,5.088c3.312,0,5.04,2.544,5.04,8.4,0,5.808-1.728,8.4-5.088,8.4s-5.088-2.544-5.088-8.4C-170.04-18.528-168.312-21.12-164.9-21.12Zm28.032-5.088c-7.68,0-12.24,5.376-12.24,13.488,0,8.448,4.608,13.488,12.192,13.488,7.632,0,12.192-5.424,12.192-13.488C-124.728-21.168-129.288-26.208-136.872-26.208Zm0,5.088c3.312,0,5.04,2.544,5.04,8.4,0,5.808-1.728,8.4-5.088,8.4s-5.088-2.544-5.088-8.4C-142.008-18.528-140.28-21.12-136.872-21.12ZM-112.728,0V-36.336l-6.816.768V0Zm7.344-14.256,8.112-11.184h-7.056l-8.16,11.52L-104.28,0h7.728Zm15.216-24.288A3.923,3.923,0,0,0-94.3-34.56a3.923,3.923,0,0,0,4.128,3.984,3.963,3.963,0,0,0,4.176-3.984A3.963,3.963,0,0,0-90.168-38.544ZM-86.712,0V-25.44h-6.816V0Zm20.928-26.208a9.578,9.578,0,0,0-7.776,3.984l-.528-3.216h-5.9V0h6.816V-17.568c1.392-2.256,2.928-3.552,4.9-3.552,1.728,0,2.784.816,2.784,3.744V0h6.816V-18.528C-58.68-23.328-61.32-26.208-65.784-26.208Zm36.336,2.16-1.68-5.232a20.2,20.2,0,0,1-11.9,3.072c-6.384,0-10.848,3.6-10.848,9.216,0,3.264,1.344,5.52,4.512,7.248a5.851,5.851,0,0,0-2.976,4.752C-52.344-2.3-50.136,0-44.808,0h3.744c2.688,0,3.984,1.056,3.984,2.784,0,1.824-1.248,3.12-5.952,3.12-4.848,0-5.9-1.056-5.9-3.456h-6.1c0,5.088,2.544,8.112,11.856,8.112,8.5,0,12.96-3.12,12.96-8.256,0-4.224-3.7-7.3-9.456-7.3H-43.56c-2.5,0-2.928-.816-2.928-1.68a2.061,2.061,0,0,1,.96-1.68,11.528,11.528,0,0,0,2.976.336c6.48,0,10.464-3.6,10.464-8.544,0-3.216-1.584-5.136-4.7-6.528A20.938,20.938,0,0,0-29.448-24.048Zm-13.44,2.4c2.832,0,4.224,1.44,4.224,4.464,0,3.12-1.44,4.752-4.176,4.752-2.592,0-4.224-1.728-4.224-4.656C-47.064-19.872-45.48-21.648-42.888-21.648ZM-23.736-6.1a3.288,3.288,0,0,0-3.312,3.312A3.3,3.3,0,0,0-23.736.576a3.31,3.31,0,0,0,3.36-3.36A3.3,3.3,0,0,0-23.736-6.1ZM7.752-33.648c-6.1,0-10.416,3.552-10.416,8.64,0,5.136,3.36,7.584,9.792,9.552,5.616,1.728,7.152,3.168,7.152,6.384,0,3.984-3.216,5.9-7.1,5.9A11.754,11.754,0,0,1-1.368-6.624L-4.008-3.7A15.466,15.466,0,0,0,7.224.576c7.44,0,11.808-4.032,11.808-9.792,0-6.336-4.512-8.4-9.792-10.032C3.288-21.072,1.992-22.416,1.992-25.2c0-3.168,2.64-4.7,5.952-4.7a10.634,10.634,0,0,1,7.44,2.976l2.592-2.88A13.946,13.946,0,0,0,7.752-33.648ZM38.28-1.152,36.6-4.176a6.181,6.181,0,0,1-3.36,1.1c-2.208,0-3.024-1.2-3.024-3.744V-21.888h5.52l.48-3.408h-6v-6.24l-4.416.528V-25.3H21.384v3.408H25.8V-6.624c0,4.7,2.544,7.2,6.816,7.2A9.643,9.643,0,0,0,38.28-1.152ZM59.88-5.9V-17.472c0-5.28-2.784-8.4-8.88-8.4a24.766,24.766,0,0,0-8.736,1.728l1.1,3.216a22.644,22.644,0,0,1,6.816-1.344c3.5,0,5.28,1.344,5.28,4.992v1.872H51.576c-7.056,0-11.136,2.928-11.136,8.352C40.44-2.544,43.464.576,48.5.576A8.618,8.618,0,0,0,56.04-3.216c.768,2.5,2.4,3.5,4.944,3.792L61.992-2.5C60.7-2.976,59.88-3.7,59.88-5.9ZM49.512-2.736c-2.88,0-4.368-1.584-4.368-4.56,0-3.456,2.352-5.184,7.008-5.184h3.312v5.808C54.024-4.032,52.1-2.736,49.512-2.736ZM79.944-25.872c-3.072,0-5.424,1.92-6.768,5.712L72.744-25.3H68.952V0h4.416V-14.448c1.056-4.848,2.88-7.1,6.048-7.1a7.934,7.934,0,0,1,2.208.288l.816-4.32A10.76,10.76,0,0,0,79.944-25.872Zm20.784,24.72-1.68-3.024a6.181,6.181,0,0,1-3.36,1.1c-2.208,0-3.024-1.2-3.024-3.744V-21.888h5.52l.48-3.408h-6v-6.24l-4.416.528V-25.3H83.832v3.408h4.416V-6.624c0,4.7,2.544,7.2,6.816,7.2A9.643,9.643,0,0,0,100.728-1.152ZM154.152-33.36h-8.5L142.3-6.576,138.648-33.36h-9.312l-4.08,26.784L122.52-33.36h-8.832L118.728,0h11.28l3.84-24.72L137.4,0h11.568Zm22.56,25.488v-9.312c0-6.144-3.264-9.264-11.04-9.264a27.825,27.825,0,0,0-9.84,1.968l1.872,5.52a23.261,23.261,0,0,1,6.672-1.344c2.928,0,3.984.768,3.984,3.552v.864h-2.208c-7.872,0-12.144,3.12-12.144,8.736,0,4.7,3.264,8.016,8.352,8.016a8.787,8.787,0,0,0,7.728-3.744c1.3,2.448,3.36,3.36,6.528,3.6l1.728-5.52C177.192-5.232,176.712-5.952,176.712-7.872Zm-11.76,2.736c-1.632,0-2.544-1.1-2.544-2.832,0-2.256,1.44-3.36,4.512-3.36h1.44v4.176A4.059,4.059,0,0,1,164.952-5.136Zm31.1-1.44a5.064,5.064,0,0,1-2.592.72c-1.392,0-2.208-.768-2.208-3.168v-10.7H196.2l.864-5.856h-5.808v-6.432l-8.544,1.008v5.424H179.4v5.856h3.312v10.8c0,6.384,2.832,9.792,8.88,9.792a13.415,13.415,0,0,0,7.3-2.112Zm15.36-19.872c-7.872,0-12.864,5.76-12.864,13.872,0,8.016,4.944,13.44,13.1,13.44a13.186,13.186,0,0,0,8.784-3.072l-3.7-5.232a8.269,8.269,0,0,1-4.656,1.68c-2.736,0-4.656-1.44-4.656-6.864s1.728-7.344,4.752-7.344a7.1,7.1,0,0,1,4.656,1.776l3.6-4.992A12.917,12.917,0,0,0,211.416-26.448Zm27.216,0a9.337,9.337,0,0,0-7.3,3.408V-36.528l-8.544.864V0h8.544V-17.28c1.248-1.92,2.5-2.928,3.84-2.928,1.152,0,1.92.624,1.92,2.976V0h8.544V-18.768C245.64-23.616,243-26.448,238.632-26.448ZM254.52-39.36a4.67,4.67,0,0,0-4.9,4.7,4.67,4.67,0,0,0,4.9,4.7,4.711,4.711,0,0,0,4.944-4.7A4.711,4.711,0,0,0,254.52-39.36Zm4.272,13.776h-8.544V0h8.544Zm20.784-.864a9.712,9.712,0,0,0-7.728,3.744l-.624-2.88h-7.488V0h8.544V-17.28c1.248-1.92,2.5-2.928,3.84-2.928,1.152,0,1.92.624,1.92,2.976V0h8.544V-18.768C286.584-23.664,283.944-26.448,279.576-26.448ZM313.752-30.1a19.708,19.708,0,0,1-12.192,3.648c-6.96,0-11.616,3.5-11.616,9.5,0,3.264,1.3,5.568,4.7,7.392A6.079,6.079,0,0,0,291.48-4.56c0,2.784,2.352,5.088,8.256,5.088h3.648c2.3,0,3.168,1.008,3.168,2.208,0,1.3-.816,2.5-4.944,2.5-4.32,0-5.184-.768-5.184-2.832h-7.632c0,4.992,2.5,8.352,12.576,8.352,9.024,0,13.776-3.312,13.776-8.64,0-4.368-3.888-7.488-10.08-7.488H301.32c-2.4,0-2.688-.768-2.688-1.392a1.478,1.478,0,0,1,.72-1.2,13.256,13.256,0,0,0,2.832.24c6.816,0,11.04-3.6,11.04-8.5,0-3.408-1.584-5.28-4.9-6.624a19.337,19.337,0,0,0,7.344-1.1ZM301.8-20.88c2.3,0,3.408,1.1,3.408,3.648,0,2.688-1.152,4.032-3.36,4.032-2.016,0-3.408-1.3-3.408-3.936C298.44-19.536,299.784-20.88,301.8-20.88Z" transform="translate(449.952 394)" fill="#fff"/>
    </g>
  </g>
</svg>
