<svg xmlns="http://www.w3.org/2000/svg" xmlns:xlink="http://www.w3.org/1999/xlink" width="1080" height="1080" viewBox="0 0 1080 1080">
  <defs>
    <linearGradient id="linear-gradient" x1="0.5" x2="0.5" y2="1" gradientUnits="objectBoundingBox">
      <stop offset="0" stop-color="#7e1eb5"/>
      <stop offset="1" stop-color="#2d0cb4"/>
    </linearGradient>
    <linearGradient id="linear-gradient-2" x1="0.5" x2="0.5" y2="1" gradientUnits="objectBoundingBox">
      <stop offset="0" stop-color="#fff"/>
      <stop offset="1" stop-color="#fff" stop-opacity="0"/>
    </linearGradient>
    <clipPath id="clip-Logo_Hori_1">
      <rect width="1080" height="1080"/>
    </clipPath>
  </defs>
  <g id="Logo_Hori_1" data-name="Logo Hori – 1" clip-path="url(#clip-Logo_Hori_1)">
    <g id="Logo_Hori" data-name="Logo Hori" transform="translate(-22.679 435.5)">
      <g id="Group_7" data-name="Group 7" transform="translate(-0.121 0)">
        <path id="Union_2" data-name="Union 2" d="M107.574,154.252a47.84,47.84,0,0,1-33.807-13.9,47.292,47.292,0,0,1-12.5-21.7H41.912a5.934,5.934,0,1,1,0-11.866H66.126a6,6,0,0,1,6.049,5.718c2.623,17.052,17.8,29.878,35.4,29.878h83.669a35.768,35.768,0,0,0,35.858-35.6V47.462a35.769,35.769,0,0,0-35.858-35.6H5.976A5.933,5.933,0,1,1,5.976,0H191.243A47.836,47.836,0,0,1,225.05,13.9a47.138,47.138,0,0,1,14,33.56V106.79a47.138,47.138,0,0,1-14,33.561,47.84,47.84,0,0,1-33.806,13.9Zm-101.6-35.6a5.933,5.933,0,1,1,0-11.866H17.929a5.933,5.933,0,1,1,0,11.866Zm23.906-35.6a5.933,5.933,0,1,1,0-11.866H71.717a5.933,5.933,0,1,1,0,11.866Zm-11.953-35.6a5.933,5.933,0,1,1,0-11.865H77.693a5.933,5.933,0,1,1,0,11.865Z" transform="translate(24.898 27.687)"/>
        <rect id="Rectangle_48" data-name="Rectangle 48" width="342" height="209" transform="translate(0.121 0)" fill="none"/>
        <path id="Path_7" data-name="Path 7" d="M32.564,3.3a5.913,5.913,0,0,1,10.613,0l31.93,64.329A5.975,5.975,0,0,1,69.8,76.282H5.94A5.975,5.975,0,0,1,.634,67.633Z" transform="translate(214.731 66.943) rotate(90)" fill="url(#linear-gradient)"/>
        <path id="Path_8" data-name="Path 8" d="M-133.678-49.163V14.7A5.979,5.979,0,0,0-125.029,20L-93.292,4.253l-36.927-58.8A5.9,5.9,0,0,0-133.678-49.163Z" transform="translate(272.122 122.048)" opacity="0.5" fill="url(#linear-gradient-2)"/>
      </g>
      <path id="Path_38" data-name="Path 38" d="M-385.152-26.88h-17.472C-399.84-12.864-388.416.1-372.672.1c14.88,0,33.312-5.76,33.312-23.616,0-13.632-10.656-21.7-20.736-24.1-7.776-1.92-24.384-2.688-24.384-12.192,0-7.1,9.408-7.68,14.784-7.68,7.392,0,11.9,4.9,13.728,9.984H-338.4c-5.088-19.872-13.824-26.112-34.08-26.112-14.4.192-29.472,9.216-29.472,23.9,0,8.256,4.8,15.744,11.328,20.064.96.576,1.824,1.056,2.688,1.536h-.1c7.1,3.744,15.072,3.648,21.792,5.472,4.7,1.248,9.312,3.552,9.312,8.256,0,7.584-8.928,8.352-14.688,8.352C-379.392-16.032-383.616-21.6-385.152-26.88ZM-303.456.1V-15.072h-7.1a3.209,3.209,0,0,1-2.976-3.36v-26.3h7.584V-60h-7.584v-8.256h-16.416v49.824a18.616,18.616,0,0,0,1.536,6.912A18.674,18.674,0,0,0-310.56.1ZM-292.7,0h16.416V-33.312c0-6.72,4.992-12,11.424-12h7.1V-60.48h-7.1a24.483,24.483,0,0,0-11.424,2.592V-59.9H-292.7Zm85.632-20.256c-3.36,3.168-7.392,5.088-11.232,5.088-6.048,0-9.792-2.976-12.384-7.392H-187.3v-7.584c0-17.28-14.592-30.144-31.008-30.144-16.32,0-31.1,12.96-31.1,30.144,0,17.088,14.784,30.048,31.1,30.048,11.616,0,25.824-7.488,30.048-20.16Zm-23.52-17.568c2.5-4.32,6.336-7.3,12.288-7.3s9.7,2.976,12.288,7.3ZM-133.152-.1h16.512V-59.808h-16.512v2.88a30.006,30.006,0,0,0-14.5-3.552c-16.416,0-31.2,13.056-31.2,30.144,0,17.184,14.784,30.144,31.2,30.144a31.416,31.416,0,0,0,14.5-3.552Zm-29.088-30.24a14.733,14.733,0,0,1,14.592-14.976,14.776,14.776,0,0,1,14.5,14.976c0,8.256-6.624,14.976-14.5,14.976A14.733,14.733,0,0,1-162.24-30.336ZM-103.1,0h16.512V-33.312c0-6.528,4.992-12,11.328-12a11.725,11.725,0,0,1,11.52,12V0h16.512V-33.312c0-6.624,5.088-12,11.424-12s11.424,5.376,11.424,12V0H-7.872V-33.312c0-15.552-13.152-27.168-27.936-27.168-8.64,0-14.016,2.784-19.584,7.968A28.014,28.014,0,0,0-75.264-60.48a26.862,26.862,0,0,0-11.328,2.4v-2.208H-103.1ZM73.536-27.456C68.16-16.7,57.12-9.408,45.12-9.408c-17.184,0-31.68-14.5-31.68-32.256s14.3-32.448,31.68-32.448c12,0,23.04,7.392,28.416,18.336H85.152A43.389,43.389,0,0,0,45.12-83.616c-22.656,0-42.528,18.528-42.528,41.952C2.592-18.144,22.56-.1,45.12-.1,62.5-.1,78.912-10.944,85.152-27.456ZM96.288-.1h10.464V-34.944c0-10.272,7.968-18.816,18.144-18.816s18.24,8.448,18.24,18.816V-.1H153.6V-34.944c0-15.744-13.536-27.648-28.7-27.648a27.024,27.024,0,0,0-15.072,4.32l-3.072,1.92v-27.36H96.288Zm122.592-.1h10.464V-62.016H218.88v7.488l-3.168-2.4a31.624,31.624,0,0,0-18.72-5.856c-17.088,0-32.448,13.44-32.448,31.3,0,17.76,15.36,31.2,32.448,31.2a31.624,31.624,0,0,0,18.72-5.856l3.168-2.3Zm-43.872-31.3a22.21,22.21,0,0,1,21.984-22.464c12,0,21.888,10.08,21.888,22.464C218.88-19.2,208.9-9.12,196.992-9.12A22.127,22.127,0,0,1,175.008-31.488Zm64.9,14.3c1.44,14.3,12.864,18.624,22.944,18.624,12.576,0,23.9-6.72,23.9-17.856,0-9.312-7.872-15.456-16.128-17.376-6.336-1.44-20.544-2.112-20.544-11.04,0-5.856,6.144-8.736,13.536-8.736,4.8,0,11.712,1.248,12.96,9.6l10.56-.192C285.792-57.984,273.312-62.5,263.328-62.5c-12.1,0-23.712,6.528-23.712,17.472,0,9.216,8.256,15.456,15.936,17.376,6.912,1.632,20.832,1.632,20.832,10.848,0,6.048-5.952,9.408-13.632,9.408-4.8,0-11.52-1.344-12.96-9.792Zm66.336-9.7h54.048V-31.3c0-17.952-15.168-31.3-32.352-31.3-16.992,0-32.352,13.44-32.352,31.3,0,17.76,15.36,31.2,32.352,31.2,12.576,0,21.5-6.72,28.512-16.9h-11.04a23.827,23.827,0,0,1-17.472,8.064A22.077,22.077,0,0,1,307.2-24.288Zm0-8.928.96-2.592a22.331,22.331,0,0,1,20.736-15.36A22.444,22.444,0,0,1,348.864-38.4l.864,2.592ZM371.232,0H381.6V-35.136c0-10.464,7.968-18.816,18.24-18.816h3.84v-8.832h-3.84a27.115,27.115,0,0,0-15.168,4.32l-3.072,1.92v-5.568H371.232Z" transform="translate(696 145.636)"/>
    </g>
  </g>
</svg>
